<mxfile host="app.diagrams.net" modified="2022-12-14T05:42:34.557Z" agent="5.0 (Windows NT 6.1; WOW64) AppleWebKit/537.36 (KHTML, like Gecko) Chrome/86.0.4240.198 Safari/537.36" etag="pdpwwf5Ifbi7QMMgTpSE" version="20.6.2" type="github">
  <diagram id="KUYNhQP6ns5_chog6xBH" name="第 1 页">
    <mxGraphModel dx="1422" dy="765" grid="1" gridSize="10" guides="1" tooltips="1" connect="1" arrows="1" fold="1" page="1" pageScale="1" pageWidth="827" pageHeight="1169" background="#F4F1DE" math="0" shadow="0">
      <root>
        <mxCell id="0" />
        <mxCell id="1" parent="0" />
        <mxCell id="7F3qD5umFavH5z8T37FG-1" value="" style="whiteSpace=wrap;html=1;aspect=fixed;strokeWidth=10;rounded=1;fillColor=#F2CC8F;strokeColor=#E07A5F;fontColor=#393C56;" parent="1" vertex="1">
          <mxGeometry x="220" y="220" width="150" height="150" as="geometry" />
        </mxCell>
        <mxCell id="7F3qD5umFavH5z8T37FG-2" value="SWC" style="text;html=1;strokeColor=none;fillColor=none;align=center;verticalAlign=middle;whiteSpace=wrap;rounded=0;sketch=0;fontSize=34;shadow=0;glass=0;fontColor=#393C56;" parent="1" vertex="1">
          <mxGeometry x="220" y="230" width="150" height="50" as="geometry" />
        </mxCell>
        <mxCell id="7F3qD5umFavH5z8T37FG-3" value="AE2" style="text;strokeColor=none;fillColor=none;align=center;verticalAlign=middle;whiteSpace=wrap;rounded=0;sketch=0;fontSize=65;html=1;spacing=2;spacingRight=0;spacingTop=0;fontColor=#393C56;" parent="1" vertex="1">
          <mxGeometry x="220" y="280" width="150" height="60" as="geometry" />
        </mxCell>
      </root>
    </mxGraphModel>
  </diagram>
</mxfile>
